<?xml version="1.0" standalone="no"?>
<!DOCTYPE svg PUBLIC "-//W3C//DTD SVG 20010904//EN"
 "http://www.w3.org/TR/2001/REC-SVG-20010904/DTD/svg10.dtd">
<svg version="1.0" xmlns="http://www.w3.org/2000/svg"
 width="865.000000pt" height="865.000000pt" viewBox="0 0 865.000000 865.000000"
 preserveAspectRatio="xMidYMid meet">
<metadata>
Created by potrace 1.14, written by Peter Selinger 2001-2017
</metadata>
<g transform="translate(0.000000,865.000000) scale(0.100000,-0.100000)"
fill="#000000" stroke="none">
<path d="M4175 8592 c-3 -3 -35 -7 -72 -9 -38 -2 -95 -8 -128 -13 -33 -5 -69
-8 -79 -6 -11 1 -40 -1 -65 -6 -25 -5 -68 -11 -96 -13 -92 -7 -158 -17 -184
-27 -14 -6 -60 -12 -101 -15 -41 -2 -82 -7 -90 -10 -8 -3 -17 -7 -20 -8 -40
-10 -157 -50 -165 -55 -14 -10 -78 -27 -125 -33 -14 -2 -39 -11 -55 -20 -17
-8 -49 -19 -70 -22 -22 -4 -56 -16 -75 -25 -19 -10 -38 -18 -42 -19 -38 -7
-138 -45 -138 -53 0 -4 -8 -8 -17 -8 -9 0 -46 -14 -82 -31 -36 -17 -91 -43
-121 -57 -30 -14 -67 -34 -82 -44 -14 -10 -31 -18 -38 -18 -7 0 -24 -8 -38
-18 -15 -11 -67 -40 -117 -66 -49 -27 -94 -51 -100 -55 -5 -4 -25 -14 -44 -21
-43 -17 -188 -115 -218 -146 -12 -13 -27 -24 -34 -24 -14 0 -76 -49 -129 -101
-22 -22 -40 -36 -40 -32 0 4 -6 1 -13 -7 -7 -8 -39 -37 -72 -65 -132 -111
-354 -328 -445 -435 -25 -30 -60 -70 -79 -89 -18 -20 -43 -52 -56 -71 -21 -32
-45 -63 -78 -100 -23 -26 -87 -117 -87 -124 0 -4 -4 -12 -10 -19 -37 -46 -65
-88 -138 -208 -45 -75 -82 -140 -82 -144 0 -5 -10 -22 -23 -39 -32 -44 -227
-462 -227 -488 0 -4 -5 -19 -12 -35 -14 -33 -13 -30 -23 -68 -4 -16 -12 -33
-17 -36 -5 -3 -12 -21 -14 -40 -3 -19 -15 -54 -27 -79 -12 -25 -21 -48 -19
-52 1 -4 -5 -34 -14 -65 -24 -91 -31 -119 -39 -165 -3 -15 -10 -40 -16 -55 -6
-15 -10 -29 -9 -31 1 -1 -2 -16 -5 -34 -4 -17 -9 -42 -11 -57 -7 -48 -25 -156
-35 -201 -11 -53 -19 -152 -34 -420 -7 -118 -7 -112 -1 -300 5 -155 13 -283
21 -330 6 -33 15 -115 19 -166 2 -22 6 -46 9 -51 4 -6 9 -31 12 -57 5 -42 24
-131 61 -296 8 -36 17 -72 19 -80 2 -8 11 -40 20 -70 9 -30 17 -62 19 -70 2
-8 14 -43 26 -78 12 -34 19 -69 16 -77 -3 -8 0 -18 7 -22 13 -8 77 -164 77
-189 0 -8 5 -14 10 -14 6 0 10 -6 10 -14 0 -19 39 -106 132 -291 91 -183 83
-168 167 -305 77 -125 181 -279 227 -337 19 -23 34 -46 34 -51 0 -6 3 -12 8
-14 4 -2 27 -28 52 -58 48 -59 61 -71 113 -110 19 -13 43 -36 53 -51 58 -80
102 -127 230 -244 41 -38 106 -99 143 -135 100 -96 190 -174 211 -182 10 -4
24 -15 31 -25 19 -27 293 -204 409 -265 205 -109 476 -238 499 -238 7 0 33
-12 59 -27 26 -16 72 -39 102 -52 50 -22 83 -33 265 -91 68 -22 232 -61 243
-58 4 1 21 -1 37 -5 72 -15 309 -58 338 -61 18 -2 59 -9 92 -14 111 -20 150
-24 265 -27 63 -2 144 -6 180 -11 119 -14 467 -8 625 12 22 3 58 6 80 9 22 2
40 4 40 5 0 1 11 4 25 6 31 4 73 12 80 15 3 1 10 3 15 4 110 18 155 29 155 36
0 6 3 8 8 5 4 -2 32 2 62 10 30 9 64 17 75 19 11 2 58 16 105 30 47 15 117 35
155 46 39 11 88 27 110 35 52 21 65 26 155 59 41 15 91 37 110 49 19 11 35 19
35 17 0 -2 31 11 69 28 38 17 72 31 76 31 4 0 13 7 20 15 7 8 21 15 31 15 9 0
24 6 31 13 16 16 130 72 141 69 4 -1 7 2 7 8 0 5 5 10 10 10 6 0 20 9 32 20
12 11 28 20 35 20 7 0 13 3 13 8 0 4 20 18 45 31 25 13 45 28 45 32 0 5 5 9
11 9 30 0 330 214 419 300 21 19 65 58 100 85 35 28 113 102 174 165 61 63
131 135 156 160 25 25 58 64 74 85 17 22 53 65 82 95 29 30 63 69 75 85 13 17
27 32 31 35 3 3 15 26 26 50 11 25 32 59 48 76 16 17 56 71 89 119 73 107 70
103 88 140 8 17 31 62 52 100 67 125 75 140 75 147 0 4 16 28 35 54 19 25 35
51 35 59 0 7 6 18 14 24 7 6 19 33 26 59 8 26 28 83 47 127 18 44 35 89 37
100 11 55 22 86 53 147 18 38 31 68 29 68 -2 0 9 37 25 83 16 45 32 98 35 117
3 19 7 43 10 52 3 9 6 25 8 35 2 10 9 38 16 63 7 25 14 53 16 63 2 10 5 26 8
35 3 9 8 39 12 67 3 27 10 60 15 72 5 13 7 23 4 23 -2 0 2 17 9 38 12 35 13
54 3 129 -2 18 -2 35 2 39 3 3 6 9 7 12 0 4 3 21 7 37 3 17 3 46 -1 65 -6 23
-4 46 5 69 10 24 12 52 7 97 -4 40 -2 69 4 77 6 6 8 35 6 62 -3 28 -5 57 -4
65 7 84 7 127 0 135 -8 10 -6 69 3 110 2 11 2 25 -2 30 -10 18 -13 39 -15 110
-2 39 -6 106 -11 150 -8 84 -8 86 -18 125 -3 14 -9 54 -12 89 -3 36 -8 67 -10
71 -2 3 -7 33 -10 65 -4 33 -16 80 -27 104 -11 25 -21 59 -23 75 -4 51 -17
110 -27 122 -5 7 -10 20 -12 30 -14 69 -49 199 -69 254 -59 160 -80 210 -88
210 -5 0 -6 7 -3 15 4 8 1 15 -5 15 -6 0 -10 3 -9 8 2 9 -13 45 -22 52 -8 7
-90 173 -90 184 0 5 -7 14 -16 20 -8 6 -16 18 -17 26 -3 16 -76 147 -108 192
-10 15 -19 29 -19 31 0 9 -70 121 -88 141 -10 12 -31 41 -47 66 -15 25 -53 75
-82 113 -30 37 -51 67 -47 67 4 0 -4 12 -19 28 -14 15 -38 46 -54 69 -15 23
-47 62 -70 87 -24 24 -43 49 -43 54 0 4 -15 22 -32 39 -18 16 -69 68 -114 114
-45 46 -116 116 -159 154 -43 39 -109 99 -146 134 -37 36 -76 69 -86 75 -10 5
-27 18 -38 29 -11 10 -44 35 -73 54 -28 19 -55 40 -60 47 -4 6 -25 20 -47 30
-22 11 -53 32 -70 47 -16 14 -61 43 -100 64 -38 21 -88 50 -110 65 -22 14 -58
34 -80 44 -22 10 -55 29 -73 43 -17 13 -47 29 -65 35 -17 6 -34 14 -37 18 -6
7 -133 77 -140 77 -3 0 -40 16 -83 36 -44 20 -88 37 -98 37 -11 0 -30 7 -42
14 -12 8 -37 18 -56 21 -18 3 -45 12 -60 19 -62 32 -204 81 -266 92 -22 4 -62
15 -90 25 -27 9 -72 20 -99 23 -26 3 -59 12 -72 21 -13 8 -40 14 -61 14 -21
-1 -58 4 -83 11 -25 6 -61 13 -80 15 -31 4 -72 11 -120 22 -26 5 -54 5 -88 -2
-23 -4 -41 -1 -57 9 -17 11 -48 16 -98 16 -45 0 -78 5 -86 13 -10 10 -12 9 -9
-3 2 -11 -4 -14 -22 -12 -14 2 -27 8 -29 14 -2 7 -6 7 -10 0 -3 -5 -36 -7 -81
-3 -41 3 -93 4 -115 1 -22 -3 -59 -2 -82 1 -24 3 -45 4 -48 1z"/>
</g>
</svg>
